<svg xmlns="http://www.w3.org/2000/svg" width="980" height="520" viewBox="0 0 980 520">
  <defs><marker id="arrow" markerWidth="12" markerHeight="12" refX="10" refY="6" orient="auto"><path d="M2,2 L10,6 L2,10" fill="#22c55e"/></marker></defs>
  <rect width="980" height="520" fill="#090d18"/>
  <text x="48" y="58" fill="#f8fafc" font-family="Inter,Segoe UI,sans-serif" font-size="30" font-weight="700">Prefix Reuse Flow</text>
  <g font-family="Inter,Segoe UI,sans-serif">
    <rect x="70" y="130" width="210" height="88" rx="8" fill="#111827" stroke="#38bdf8"/><text x="96" y="164" fill="#e5e7eb" font-size="18">Session A</text><text x="96" y="190" fill="#94a3b8" font-size="13">system prompt blocks</text>
    <rect x="385" y="118" width="230" height="112" rx="8" fill="#10201a" stroke="#22c55e"/><text x="414" y="154" fill="#dcfce7" font-size="18">Prefix Directory</text><text x="414" y="181" fill="#94a3b8" font-size="13">prefix_hash → canonical blocks</text><text x="414" y="204" fill="#94a3b8" font-size="13">fanout · hit rate · saved bytes</text>
    <rect x="700" y="130" width="210" height="88" rx="8" fill="#111827" stroke="#a78bfa"/><text x="726" y="164" fill="#e5e7eb" font-size="18">KV Appliance</text><text x="726" y="190" fill="#94a3b8" font-size="13">canonical prefix copy</text>
    <rect x="70" y="320" width="210" height="88" rx="8" fill="#111827" stroke="#38bdf8"/><text x="96" y="354" fill="#e5e7eb" font-size="18">Session B...N</text><text x="96" y="380" fill="#94a3b8" font-size="13">same prefix hash</text>
    <rect x="700" y="320" width="210" height="88" rx="8" fill="#21150e" stroke="#f97316"/><text x="726" y="354" fill="#ffedd5" font-size="18">DEDUP_REF</text><text x="726" y="380" fill="#94a3b8" font-size="13">small reference footprint</text>
  </g>
  <path d="M280 174 L385 174" stroke="#22c55e" stroke-width="3" marker-end="url(#arrow)"/>
  <path d="M615 174 L700 174" stroke="#22c55e" stroke-width="3" marker-end="url(#arrow)"/>
  <path d="M280 364 L385 194" stroke="#22c55e" stroke-width="3" stroke-dasharray="7 6" marker-end="url(#arrow)"/>
  <path d="M615 200 L700 350" stroke="#22c55e" stroke-width="3" stroke-dasharray="7 6" marker-end="url(#arrow)"/>
</svg>
