<svg xmlns="http://www.w3.org/2000/svg" width="1100" height="620" viewBox="0 0 1100 620"><rect width="1100" height="620" fill="#090d18"/><text x="50" y="60" fill="#f8fafc" font-family="Inter,Segoe UI,sans-serif" font-size="32" font-weight="700">Rack-Scale KV Fabric</text><text x="50" y="92" fill="#94a3b8" font-family="Inter,Segoe UI,sans-serif" font-size="15">KV cache becomes a distributed systems problem: locality, fanout, congestion, and movement cost.</text><g font-family="Inter,Segoe UI,sans-serif"><rect x="70" y="140" width="420" height="350" rx="10" fill="#111827" stroke="#334155"/><text x="100" y="178" fill="#93c5fd" font-size="20" font-weight="700">Rack A</text><rect x="100" y="220" width="130" height="54" rx="7" fill="#0f172a" stroke="#38bdf8"/><text x="126" y="253" fill="#e5e7eb" font-size="14">GPU 0</text><rect x="290" y="220" width="130" height="54" rx="7" fill="#0f172a" stroke="#38bdf8"/><text x="316" y="253" fill="#e5e7eb" font-size="14">GPU 1</text><rect x="100" y="310" width="130" height="54" rx="7" fill="#0f172a" stroke="#38bdf8"/><text x="126" y="343" fill="#e5e7eb" font-size="14">GPU 2</text><rect x="290" y="310" width="130" height="54" rx="7" fill="#0f172a" stroke="#38bdf8"/><text x="316" y="343" fill="#e5e7eb" font-size="14">GPU 3</text><rect x="145" y="410" width="250" height="52" rx="7" fill="#10201a" stroke="#22c55e"/><text x="182" y="442" fill="#dcfce7" font-size="15">KV Appliance A</text><rect x="610" y="140" width="420" height="350" rx="10" fill="#111827" stroke="#334155"/><text x="640" y="178" fill="#93c5fd" font-size="20" font-weight="700">Rack B</text><rect x="640" y="220" width="130" height="54" rx="7" fill="#0f172a" stroke="#38bdf8"/><text x="666" y="253" fill="#e5e7eb" font-size="14">GPU 4</text><rect x="830" y="220" width="130" height="54" rx="7" fill="#0f172a" stroke="#38bdf8"/><text x="856" y="253" fill="#e5e7eb" font-size="14">GPU 5</text><rect x="640" y="310" width="130" height="54" rx="7" fill="#0f172a" stroke="#38bdf8"/><text x="666" y="343" fill="#e5e7eb" font-size="14">GPU 6</text><rect x="830" y="310" width="130" height="54" rx="7" fill="#0f172a" stroke="#38bdf8"/><text x="856" y="343" fill="#e5e7eb" font-size="14">GPU 7</text><rect x="685" y="410" width="250" height="52" rx="7" fill="#10201a" stroke="#22c55e"/><text x="722" y="442" fill="#dcfce7" font-size="15">KV Appliance B</text></g><path d="M490 315 L610 315" stroke="#f97316" stroke-width="4" stroke-dasharray="10 7"/><text x="505" y="298" fill="#fed7aa" font-family="Inter,Segoe UI,sans-serif" font-size="14">rack uplink pressure</text><path d="M270 410 C260 356 235 280 170 274" fill="none" stroke="#22c55e" stroke-width="3"/><path d="M810 410 C800 356 775 280 710 274" fill="none" stroke="#22c55e" stroke-width="3"/><text x="70" y="545" fill="#cbd5e1" font-family="Inter,Segoe UI,sans-serif" font-size="15">Semantic routing tries to keep active decode local, anchor shared prefixes near fanout clusters, and avoid cross-rack KV movement.</text></svg>
